<svg id="Layer_1-2" xmlns="http://www.w3.org/2000/svg" width="188.159" height="28.966" viewBox="0 0 188.159 28.966">
  <g id="Group_314" data-name="Group 314">
    <g id="Group_312" data-name="Group 312">
      <g id="Group_310" data-name="Group 310">
        <g id="Group_306" data-name="Group 306">
          <path id="Path_95" data-name="Path 95" d="M4.336,11.038,0,8.281V0H4.336Z" fill="#f4b43f"/>
          <path id="Path_96" data-name="Path 96" d="M11.038,4.336,8.281,0H0V4.336Z" fill="#f4b43f"/>
        </g>
        <g id="Group_307" data-name="Group 307" transform="translate(17.987)">
          <path id="Path_97" data-name="Path 97" d="M173.27,4.336,176.027,0h8.281V4.336Z" transform="translate(-173.27)" fill="#f4b43f"/>
          <path id="Path_98" data-name="Path 98" d="M237.83,11.038l4.336-2.757V0H237.83Z" transform="translate(-231.128)" fill="#f4b43f"/>
        </g>
        <g id="Group_308" data-name="Group 308" transform="translate(17.987 17.928)">
          <path id="Path_99" data-name="Path 99" d="M237.83,172.7l4.336,2.757v8.281H237.83Z" transform="translate(-231.128 -172.7)" fill="#f4b43f"/>
          <path id="Path_100" data-name="Path 100" d="M173.27,237.26l2.757,4.336h8.281V237.26Z" transform="translate(-173.27 -230.558)" fill="#f4b43f"/>
        </g>
        <g id="Group_309" data-name="Group 309" transform="translate(0 17.928)">
          <path id="Path_101" data-name="Path 101" d="M11.038,237.26,8.281,241.6H0V237.26Z" transform="translate(0 -230.558)" fill="#f4b43f"/>
          <path id="Path_102" data-name="Path 102" d="M4.336,172.7,0,175.457v8.281H4.336Z" transform="translate(0 -172.7)" fill="#f4b43f"/>
        </g>
      </g>
      <g id="Group_311" data-name="Group 311" transform="translate(39.74 3.026)">
        <path id="Path_103" data-name="Path 103" d="M382.85,44.432c0-1.526,0-2.12-.03-3.4h5.187c-.03,1.312-.03,1.846-.03,3.4V57.371c0,2.38,0,3.387.03,4.913H382.82c.03-1.435.03-2.686.03-4.913Z" transform="translate(-382.82 -39.797)" fill="#1d64d6"/>
        <path id="Path_104" data-name="Path 104" d="M461.89,44.688v-.977c0-8.239,2.686-10.771,13.579-10.771s13.427,1.953,13.365,8.941L483.769,42c0-3.356-.916-4.486-8.3-4.486s-8.3,1.373-8.3,6.561v.244c0,5.279,1.16,6.561,8.361,6.561s8.239-1.16,8.269-4.486l5.066.122c.061,6.866-2.442,8.941-13.4,8.941S461.891,52.9,461.891,44.69Z" transform="translate(-453.682 -32.547)" fill="#1d64d6"/>
        <path id="Path_105" data-name="Path 105" d="M750.26,51.636V32.464l5.187-3.314c-.03,1.16-.03,17.879-.03,17.879L773.359,47l-2.95,4.638H750.26Z" transform="translate(-712.116 -29.15)" fill="#1d64d6"/>
      </g>
    </g>
    <g id="Group_313" data-name="Group 313" transform="translate(104.827 3.866)">
      <path id="Path_106" data-name="Path 106" d="M1009.831,53.971V41.209c0-1.614,0-2.5-.031-3.959h3.229c-.03,1.462-.03,2.345-.03,3.959v5.056h17.817V41.209c0-1.614,0-2.5-.03-3.959h3.229c-.03,1.462-.03,2.345-.03,3.959V53.94c0,2.71,0,3.29.03,4.934h-3.229c.03-1.523.03-2.558.03-4.9V49.128H1013V53.94c0,2.71,0,3.29.03,4.934H1009.8C1009.831,57.352,1009.831,56.317,1009.831,53.971Z" transform="translate(-1009.8 -37.249)" fill="#f4b43f"/>
      <path id="Path_107" data-name="Path 107" d="M1315.721,41.261v2.345c0,1.706.031,3.807.031,6.67,0,6.548-2.468,9.015-12.426,9.015s-12.426-2.467-12.426-9.015c0-2.863.031-4.964.031-6.67V41.169c0-1.614,0-2.893-.031-3.929h3.229c-.03,1.157-.03,2.5-.03,3.959V49.91c0,5,1.432,6.427,9.229,6.427s9.229-1.432,9.229-6.427V41.23c0-1.493,0-2.832-.031-3.989h3.228c-.031,1.035-.031,2.345-.031,4.021Z" transform="translate(-1261.719 -37.24)" fill="#f4b43f"/>
      <path id="Path_108" data-name="Path 108" d="M1578.151,41.209c0-1.614,0-2.528-.031-3.959h15.137c7.065,0,8.832,1.827,8.832,5.543v.123c0,2.467-.883,4.112-4.112,5,3.473.822,4.477,2.467,4.477,5.178v.121c0,4.112-1.858,5.665-9.015,5.665h-15.32c.031-1.493.031-2.558.031-4.9V41.21Zm3.167-1.1v6.4h11.848c4.416,0,5.635-.944,5.635-3.167v-.122c0-2.254-1.126-3.106-5.512-3.106h-11.969Zm0,9.259v6.64h12.122c4.6,0,5.726-.731,5.726-3.29v-.06c0-2.467-1.371-3.29-5.726-3.29Z" transform="translate(-1519.123 -37.249)" fill="#f4b43f"/>
    </g>
  </g>
</svg>
